<?xml version="1.0" standalone="no"?>
<!DOCTYPE svg PUBLIC "-//W3C//DTD SVG 20010904//EN"
 "http://www.w3.org/TR/2001/REC-SVG-20010904/DTD/svg10.dtd">
<svg version="1.0" xmlns="http://www.w3.org/2000/svg"
 width="280.000000pt" height="280.000000pt" viewBox="0 0 280.000000 280.000000"
 preserveAspectRatio="xMidYMid meet">
<metadata>
Created by potrace 1.11, written by Peter Selinger 2001-2013
</metadata>
<g transform="translate(0.000000,280.000000) scale(0.100000,-0.100000)"
fill="#000000" stroke="none">
<path d="M0 1400 l0 -1400 1400 0 1400 0 0 1400 0 1400 -1400 0 -1400 0 0
-1400z m1635 1047 c355 -61 528 -122 649 -229 48 -42 68 -72 98 -148 20 -51
25 -238 8 -312 -11 -50 -46 -319 -55 -428 -4 -41 -12 -199 -19 -350 -11 -223
-17 -281 -31 -308 -17 -34 -93 -94 -155 -124 -65 -31 -165 -76 -230 -102 -36
-15 -74 -31 -85 -36 -11 -5 -42 -19 -70 -30 -27 -12 -82 -37 -122 -56 -39 -19
-76 -34 -81 -34 -6 0 -12 -3 -14 -7 -5 -12 -67 -43 -85 -43 -17 0 -101 26
-150 47 -17 7 -34 13 -39 13 -15 0 -261 103 -364 152 -261 125 -375 193 -397
238 -8 16 -13 70 -13 145 0 119 -16 270 -44 435 -45 255 -50 308 -50 510 -1
184 1 210 19 250 27 61 80 137 129 183 35 33 177 127 192 127 3 0 33 13 67 29
68 32 152 58 237 73 30 5 69 13 85 18 47 14 418 4 520 -13z"/>
</g>
</svg>
